<svg id="cydia" xmlns="http://www.w3.org/2000/svg" viewBox="0 0 72 72"><defs><style>.cls-1{fill:#1e1e1e;}</style></defs><title>cydia</title><g id="cydia-2" data-name="cydia"><polygon class="cls-1" points="10.18 53.45 30.79 69.21 30.79 42.3 18.42 47.39 16.24 47.39 10.18 42.3 10.18 53.45"/><polygon class="cls-1" points="31.76 43.27 31.76 69.21 62.79 55.88 62.79 46.42 42.18 55.64 31.76 43.27"/><polygon class="cls-1" points="33.21 42.3 42.67 53.7 69.33 41.82 63.52 28.97 33.21 42.3"/><polygon class="cls-1" points="21.33 28.73 21.33 32.85 31.76 41.09 47.27 34.06 47.27 30.91 36.36 23.64 21.33 28.73"/><polygon class="cls-1" points="29.33 41.09 8.48 25.09 0 31.64 17.21 46.18 29.33 41.09"/><polygon class="cls-1" points="20.36 31.64 20.36 27.76 35.88 22.42 35.88 19.52 26.42 13.21 23.76 13.21 10.18 17.82 10.18 24.85 20.36 31.64"/><polygon class="cls-1" points="8.97 22.42 8.97 16.61 25.7 11.03 25.7 8.12 5.82 15.39 8.97 22.42"/><polygon class="cls-1" points="26.67 6.91 41.7 2.79 51.39 8.36 51.39 12.48 37.09 18.3 26.67 11.76 26.67 6.91"/><polygon class="cls-1" points="48.24 33.82 48.24 29.7 37.09 22.42 37.09 19.52 51.88 13.94 62.79 21.45 62.79 27.76 48.24 33.82"/><polygon class="cls-1" points="63.76 26.79 72 18.79 52.36 7.15 52.36 13.21 63.76 20.73 63.76 26.79"/></g></svg>