<svg id="medium" xmlns="http://www.w3.org/2000/svg" viewBox="0 0 72 72"><defs><style>.cls-1{fill:#1e1e1e;}</style></defs><title>medium</title><path id="medium-2" data-name="medium" class="cls-1" d="M8.88,19.06a2.74,2.74,0,0,0-.94-2.35L1,8.61V7.4H22.27L38.41,42.8,52.59,7.4H72V8.63l-5.25,5.51c-.5.38-.67,1.61-.67,1.61V55.28a1.73,1.73,0,0,0,.61,1.62L72,62.41v1.21H44.38v-.25l5.56-5.65c.57-.57.57-.73.36-1.61V23.38l-16,41.22h-2.1L12.82,23.54V51.06a3.74,3.74,0,0,0,1.08,3.16l7.8,9.17V64.6H0V63.39l7.86-9.17a3.59,3.59,0,0,0,1-3.16Z"/></svg>